<svg width="93" height="79" viewBox="0 0 93 79" fill="none" xmlns="http://www.w3.org/2000/svg">
<mask id="mask0_4_175" style="mask-type:luminance" maskUnits="userSpaceOnUse" x="7" y="4" width="86" height="76">
<path d="M7.27246 4.18982H92.612V79.008H7.27246V4.18982Z" fill="white"/>
</mask>
<g mask="url(#mask0_4_175)">
<path d="M50.4405 5.19986H60.9621C78.2209 5.19986 92.2622 17.5869 92.2622 32.8078V78.9893H39.9135C22.66 78.9893 8.61877 66.6022 8.61877 51.3814V42.0946H26.063V51.3814C26.063 58.1197 32.2753 63.5954 39.9135 63.5954H74.8126V32.8078C74.8126 26.0741 68.6003 20.589 60.9674 20.589H50.4405V5.19986Z" fill="#0F766E"/>
</g>
<mask id="mask1_4_175" style="mask-type:luminance" maskUnits="userSpaceOnUse" x="0" y="0" width="38" height="33">
<path d="M0 0H37.1254V32.92H0V0Z" fill="white"/>
</mask>
<g mask="url(#mask1_4_175)">
<path d="M12.3928 10.8159H0V21.5804H12.3928V32.5178H24.6001V21.5804H36.9929V10.8159H24.6001V-0.116913H12.3928V10.8159Z" fill="#0F766E"/>
</g>
<mask id="mask2_4_175" style="mask-type:luminance" maskUnits="userSpaceOnUse" x="49" y="4" width="44" height="76">
<path d="M49.3379 4.18982H92.6119V79.008H49.3379V4.18982Z" fill="white"/>
</mask>
<g mask="url(#mask2_4_175)">
<path d="M50.4404 5.19986H60.9621C78.2208 5.19986 92.2621 17.5869 92.2621 32.8078V78.9893H91.3928L74.4574 63.5954H74.8126V32.8078C74.8126 26.0741 68.6003 20.589 60.9621 20.589H50.4404V5.19986Z" fill="#0F766E"/>
</g>
<mask id="mask3_4_175" style="mask-type:luminance" maskUnits="userSpaceOnUse" x="30" y="23" width="43" height="39">
<path d="M30.0491 23.6613H72.7931V61.3696H30.0491V23.6613Z" fill="white"/>
</mask>
<g mask="url(#mask3_4_175)">
<path d="M51.4476 23.6613C39.6007 23.6613 30.0491 32.1765 30.0491 42.5435C30.0491 52.9947 39.6962 61.4257 51.4476 61.4257C63.2944 61.4257 72.8514 52.9105 72.8514 42.5435C72.8514 32.1765 63.2944 23.6613 51.4476 23.6613ZM64.7309 51.6479C64.1584 53.3313 61.577 55.777 59.1864 55.777L58.9956 55.6928C55.4601 55.5244 50.5889 52.5738 46.0993 47.7714L44.472 45.9992C39.9824 41.1968 37.5971 36.4739 38.1696 33.4391C38.5512 31.2506 42.1821 29.4784 44.2812 29.4784C45.336 29.4784 45.7176 29.8992 45.813 30.2359C46.958 32.0923 48.4845 35.2955 48.4845 36.4739V36.6422C48.1983 37.2314 47.6258 37.5728 47.1488 37.8253C46.4809 38.162 46.0993 38.4145 46.0039 39.0037C46.0039 39.172 46.1947 40.0979 49.1577 43.301L50.3981 44.6524C53.3611 47.7714 54.3152 48.1081 54.506 48.1081C55.2693 48.1923 55.5555 47.9398 56.1333 47.4347C56.5149 47.0092 56.992 46.5884 57.6599 46.5042H57.8507C59.1864 46.7567 62.4357 48.6131 64.3492 50.044C64.6355 50.1282 65.1125 50.549 64.7309 51.6479Z" fill="#0F766E"/>
</g>
</svg>
